<svg width="972" height="779" xmlns="http://www.w3.org/2000/svg" xmlns:xlink="http://www.w3.org/1999/xlink" xml:space="preserve" overflow="hidden"><g transform="translate(-1466 -82)"><g><path d="M1803 651.5C1803 570.038 1869.04 504 1950.5 504 2031.96 504 2098 570.038 2098 651.5 2098 732.962 2031.96 799 1950.5 799 1869.04 799 1803 732.962 1803 651.5Z" fill="#000000" fill-rule="evenodd" fill-opacity="1"/><path d="M1906.5 572.5 2056.5 647 1906.5 721.5Z" stroke="#FFFFFF" stroke-width="30.9375" stroke-linecap="round" stroke-linejoin="round" stroke-miterlimit="10" stroke-opacity="1" fill="#FFFFFF" fill-rule="evenodd" fill-opacity="1"/><path d="M1553.5 538.851C1534.23 316.005 1699.49 119.75 1922.61 100.502 2145.73 81.2545 2342.22 246.303 2361.5 469.149 2363.13 488.076 2363.43 507.094 2362.4 526.064" stroke="#000000" stroke-width="27.5" stroke-linecap="butt" stroke-linejoin="miter" stroke-miterlimit="8" stroke-opacity="1" fill="none" fill-rule="evenodd"/><path d="M2238.27 446.779C2327.89 441.037 2404.44 522.89 2409.26 629.603 2414.09 736.316 2345.35 827.479 2255.73 833.22 2249.32 833.631 2242.89 833.589 2236.48 833.094Z" stroke="#000000" stroke-width="52.7083" stroke-linecap="round" stroke-linejoin="round" stroke-miterlimit="10" stroke-opacity="1" fill="#000000" fill-rule="evenodd" fill-opacity="1"/><path d="M171.231 386.721C81.6145 392.463 5.0569 310.61 0.234867 203.897-4.58717 97.1842 64.1524 6.02162 153.769 0.279683 160.184-0.131336 166.614-0.089015 173.024 0.406424Z" stroke="#000000" stroke-width="52.7083" stroke-linecap="round" stroke-linejoin="round" stroke-miterlimit="10" stroke-opacity="1" fill="#000000" fill-rule="evenodd" fill-opacity="1" transform="matrix(1 -1.22465e-16 -1.22465e-16 -1 1494.5 833.5)"/></g></g></svg>